/* XPM */
static char *result[] = {
/* columns rows colors chars-per-pixel */
"64 64 14 1 ",
"  c gray6",
". c #1E1918",
"X c #231512",
"o c #2A2024",
"O c #2A2E31",
"+ c #34393C",
"@ c #562F00",
"# c #634200",
"$ c #765410",
"% c #3E484D",
"& c #495960",
"* c #866523",
"= c #A0872C",
"- c None",
/* pixels */
"-------------------------------------------------------- $$$$+++",
"-------------------------------------------------------- $###OOO",
"-------------------------------------------------------- $###OOO",
"-------------------------------------------------------- $###OOO",
"-------------------------------------------------------- $###OOX",
"-------------------------------------------------------- $###OOX",
"-------------------------------------------------------- $###OOX",
"-------------------------------------------------------- =$$$++o",
"-------------------------------------------------------- $###OOX",
"-------------------------------------------------------- =$$$++O",
"-------------------------------------------------------- =$$$++O",
"-------------------------------------------------------- =$$$+++",
"-------------------------------------------------------- =$$$+++",
"-------------------------------------------------------- =$$$+++",
"-------------------------------------------------------- =$$$+++",
"-------------------------------------------------------- *$$$$$$",
"-------------------------------------------------------- =$$$$$$",
"-------------------------------------------------------- *$$$$$$",
"-------------------------------------------------------- *******",
"---------------------------------------------------------.......",
"........ . .  --------------------------------------------------",
"$$$$$$$$$$+++O -------------------------------------------------",
"$$$$$$$$$+$+++ -------------------------------------------------",
"$$$$$$$$$$+$+O -------------------------------------------------",
"$$$$$$$$$$$+++ -------------------------------------------------",
"++++++++++$$+O -------------------------------------------------",
"++++++++++$++O -------------------------------------------------",
"oooOOO+++++$+O -------------------------------------------------",
"++++++++++$++O -------------------------------------------------",
"+++++++%+++++O -------------------------------------------------",
"+++++++%++$++O.-------------------------------------------------",
"+++++++%+++++O -------------------------------------------------",
"+++++++%+++++O.-------------------------------------------------",
"+++++++&++++++ -------------------------------------------------",
"+++++++&++$++O.-------------------------------------------------",
"++++++%&++++++ -------------------------------------------------",
"&&&&&&&+++$+$+.-------------------------------------------------",
"+++++++++++$++ -------------------------------------------------",
"++++*O++++$+$+.-------------------------------------------------",
"$$$*@#$$$$+$++ -------------------------------------------------",
"$*= @$$$$$$+++.-------------------------------------------------",
"=   #$$$$$+$++ -------------------------------------------------",
" . . ##$*$$++O.-------------------------------------------------",
". . .       ..--------------------------------------------------",
"-------------------------------------------------- . ... . .    ",
"------------------------------------------------- $$$$$$$$$$$$$$",
"------------------------------------------------- $$$$$$$$$$$$$$",
"------------------------------------------------- *$$$$$$$$$$$$$",
"------------------------------------------------- $$$$$$$$$$$$$$",
"------------------------------------------------- *$$$++++++++++",
"------------------------------------------------- =$$$++++++++++",
"------------------------------------------------- =$$$+++ooooooo",
"------------------------------------------------- =$$$++oO++++++",
"------------------------------------------------- *$$$++o+++++++",
"------------------------------------------------- =$$$++o+++++++",
"------------------------------------------------- $$$$++o+++++++",
"------------------------------------------------- *$$$++O+++++++",
"------------------------------------------------- $$$$++O+++++++",
"------------------------------------------------- $$$$++O+++++++",
"------------------------------------------------- $$$$++++++++++",
"------------------------------------------------- $$$$++++%%%%%%",
"------------------------------------------------- $$$$++++++++++",
"-------------------------------------------------.$$$$++++++++++",
"-------------------------------------------------  X    o oooooo"
};
