/* XPM */
static char *result[] = {
/* columns rows colors chars-per-pixel */
"64 64 16 1 ",
"  c gray6",
". c #1E1918",
"X c #231512",
"o c #2A2024",
"O c #382E2B",
"+ c #2A2E31",
"@ c #34393C",
"# c #562F00",
"$ c #634200",
"% c #765410",
"& c #544627",
"* c #3E484D",
"= c #495960",
"- c #866523",
"; c #A0872C",
": c None",
/* pixels */
"@@@@@+@@@@+%$$$ :::::::::::::::::::::::: %%%%@@@@@@@@@@@@@@@@@@@",
"+++++++++++$$$$ :::::::::::::::::::::::: %$$$+++++++++++++++++++",
"+++++++++++$$$# :::::::::::::::::::::::: %$$$+++++++++++++++++++",
"ooooooo++++$$$$ :::::::::::::::::::::::: %$$$+++XXXXXXXXXXXXoXoo",
"+++++++++++$$$# :::::::::::::::::::::::: %$$$++Xo+++++++++++++++",
"++++++++@++$$$# :::::::::::::::::::::::: %$$$++X++++++++++++++++",
"++++++++@++$$$# :::::::::::::::::::::::: %$$$++X++++++++++++++++",
"@@@@@@@@*@@%%%$.:::::::::::::::::::::::: ;%%%@@o@@@@@@@@@@@@@@@@",
"++++++++@++$$$# :::::::::::::::::::::::: %$$$++X++++++++++++++++",
"@@@@@@@@*@@%%%$.:::::::::::::::::::::::: ;%%%@@+@@@@@@@@@@@@@@@@",
"@@@@@@@@=@@%%%$ :::::::::::::::::::::::: ;%%%@@+@@@@@@@@@@@@@@@@",
"+@@@@@@@*@@%%%$ :::::::::::::::::::::::: ;%%%@@@@@@@@@@@@@@@@@@@",
"=@@@@@@@=@@%%%$.:::::::::::::::::::::::: ;%%%@@@@***=*====*@@@@@",
"@@@@@@@@=@@%%%$.:::::::::::::::::::::::: ;%%%@@@@@@@@@@@@@@*@@@@",
"@@@@@@@@=@@%%%$.:::::::::::::::::::::::: ;%%%@@@@@@@@@@@@@@@*@@@",
"@@@@@@@@=@@%%%$ :::::::::::::::::::::::: -%%%%%%%%%%%%%%%&@@@*@@",
"@@@@@@@@=@@%%%$.:::::::::::::::::::::::: ;%%%%%%%%%%%%%%%%%@@@*@",
"@@@@@@@*=@@%%%% :::::::::::::::::::::::: -%%%%%%%%%%%%%%%%%&@@@*",
"=*======@@@%%%$.:::::::::::::::::::::::: --------%-%-%%%%%%%@@@@",
"@@@@@@@@@@@@-%%.:::::::::::::::::::::::::........ .    $%%%%@@@@",
"@@@@@@@@@@+-%%%$........ . .  ::::::::::::::::::::::::: @%@%@@@@",
"o++++++@@@*%%%%%%%%%%%%%%%@@@+ :::::::::::::::::::::::: @@%%@@@o",
"@@@@@@@@+@@&%%%%%%%%%%%%%@%@@@ :::::::::::::::::::::::: @@@%@@o@",
"@@@@@+@+@@@@%%%%%%%%%%%%%%@%@+ :::::::::::::::::::::::: *@%@@@o@",
"@@@@+*+@+*@@@&%%%%%%%%%%%%%@@@ :::::::::::::::::::::::: *@@%@@o@",
"@@@+=+@+=@*@@@@@@@@@@@@@@@%%@+ :::::::::::::::::::::::: *@%@@@o@",
"@@+=@@+*@@@*@@@@@@@@@@@@@@%@@+ :::::::::::::::::::::::: =@@%@@o@",
"@@*@@+@@@@@@+oooooo+++@@@@@%@+ :::::::::::::::::::::::: =@%@@@o+",
"@@@@@@@@@@@@@@@@@@@@@@@@@@%@@+ :::::::::::::::::::::::: =@@@@@o*",
"@@@@@@@@@@@@@@@@@@@@@@@*@@@@@+ :::::::::::::::::::::::: *@@@@+@@",
"@@@@@@@@@@@@@@@@@@@@@@@*@@%@@+.:::::::::::::::::::::::: =@@@+=o@",
"@@@@@@@@@@@@@@@@@@@@@@@*@@@@@+ ::::::::::::::::::::::::.*@@@*+@@",
"@@@@@@@@@@@@@@@@@@@@@@@*@@@@@+.:::::::::::::::::::::::: *@@@+=+@",
"@@@@@@@@@@@@@@@@@@@@@@@=@@@@@@ ::::::::::::::::::::::::.*@@@*@+@",
"@@@@@@@+ooo@@@@@@@@@@@@=@@%@@+.:::::::::::::::::::::::: *@@%@@+@",
"@@@@@@+oOO++@@@@@@@@@@*=@@@@@@ ::::::::::::::::::::::::.*@@@@@+@",
"@@@@@+oOO@@+*==========@@@%@%@.::::::::::::::::::::::::.*@@%@@+@",
"@@@@=oOO@O@@*@@@@@@@@@@@@@@%@@ ::::::::::::::::::::::::.*@@@@@+@",
"@@@=@o+OO@@=*@@@@@@@-+@@@@%@%@.::::::::::::::::::::::::.@@@%@@+@",
"@@=@@@&@@&;-%%%%%%%-#$%%%%@%@@ ::::::::::::::::::::::::.@@%@@@+@",
"@=@@@%;;;-%%%%%%%-; #%%%%%%@@@.::::::::::::::::::::::::.@%@%@@+@",
"=@@@&%%%%%%%%%%-;   $%%%%%@%@@ ::::::::::::::::::::::::.-@%%@@@@",
"@@@@%%%%%%%--;;  . . $$%-%%@@+.::::::::::::::::::::::::.-%%%@@@@",
"@@@@%%%%$  .. ... . .       ..:::::::::::::::::::::::::.%%%%@@@@",
"@@@@%%%% ::::::::::::::::::::::::: . ... . .       . ..$%%%%@@@@",
"@@@@%%%% :::::::::::::::::::::::: %%%%%%%%%%%%%%%%%%%%%%%%%%@@@@",
"@@@@%%%$ :::::::::::::::::::::::: %%%%%%%%%%%%%%%%%%%%%%%%%&@@@o",
"@*@@%%%% :::::::::::::::::::::::: -%%%%%%%%%%%%%%%%%%%%%%%%@@@o@",
"@*@@%%%$ :::::::::::::::::::::::: %%%%%%%%%%%%%%%%%%%%%%%&@@@o@@",
"@*@@%%%$ :::::::::::::::::::::::: -%%%@@@@@@@@@@@@@@@@@@@@@@o@@@",
"@=@@%%%$ :::::::::::::::::::::::: ;%%%@@@@@@@@@@@@@@@@@@@@@+@@@@",
"@=@@%%%$.:::::::::::::::::::::::: ;%%%@@@oooooooooo+o++++++@@@@@",
"@=@@%%%$ :::::::::::::::::::::::: ;%%%@@o+@@@@@@@@@@@@@@@@@@@@@@",
"@=@@%%%$.:::::::::::::::::::::::: -%%%@@o@@@@@@@@@@@@@@@@@@@@@@@",
"@=@@%%%$ :::::::::::::::::::::::: ;%%%@@o@@@@@@@@@@@@@@@@@@@@@@@",
"@*@@%%%#.:::::::::::::::::::::::: %%%%@@o@@@@@@@@@@@@@@@@@@@@@@@",
"@=@@%%%$.:::::::::::::::::::::::: -%%%@@+@@@@@@@@@@@@@@@@@@@@@@@",
"@=@@%%%#.:::::::::::::::::::::::: %%%%@@+@@@@@@@@@@@@@@@@@@@@@@@",
"@=@@%%%# :::::::::::::::::::::::: %%%%@@+@@@@@@@@@@@@@@@@@@@@@@@",
"*=@@%%%#.:::::::::::::::::::::::: %%%%@@@@@@@@@@@@@@@@@@@@@@@@@@",
"=@@@%%%# :::::::::::::::::::::::: %%%%@@@@******=====*=*========",
"@@@@%%%#.:::::::::::::::::::::::: %%%%@@@@@@@@@@@@@@@@@@@@@@@@@@",
"@@@@%%%#.::::::::::::::::::::::::.%%%%@@@@@@@@@@@@@@@@@@@@@@@@@@",
"ooooXXX  ::::::::::::::::::::::::  X    o ooooooooooXoXooXoXoXXX"
};
