/* XPM */
static char *result[] = {
/* columns rows colors chars-per-pixel */
"64 64 17 1 ",
"  c gray6",
". c #1E1918",
"X c #231512",
"o c #2A2024",
"O c #382E2B",
"+ c #2A2E31",
"@ c #34393C",
"# c #562F00",
"$ c #634200",
"% c #765410",
"& c #544627",
"* c #503C42",
"= c #3E484D",
"- c #495960",
"; c #866523",
": c #A0872C",
"> c None",
/* pixels */
"@@@@@@@@@+@@@@+%$$$ >>>>>>>>>>>>>>>> %%%%@@@@@@@@@@@@@@@@@@@@@@@",
"+++++++++++++++$$$$ >>>>>>>>>>>>>>>> %$$$+++++++++++++++++++++++",
"+++++++++++++++$$$# >>>>>>>>>>>>>>>> %$$$+++++++++++++++++++++++",
"XXoXooooooo++++$$$$ >>>>>>>>>>>>>>>> %$$$+++XXXXXXXXXXXXoXooooXX",
"+++++++++++++++$$$# >>>>>>>>>>>>>>>> %$$$++Xo+++++++++++++++++++",
"++++++++++++@++$$$# >>>>>>>>>>>>>>>> %$$$++X++++++++++++++++++++",
"++++++++++++@++$$$# >>>>>>>>>>>>>>>> %$$$++X++++++++++++++++++++",
"@@@@@@@@@@@@=@@%%%$.>>>>>>>>>>>>>>>> :%%%@@o@@@@@@@@@@@@@@@@@@@@",
"++++++++++++@++$$$# >>>>>>>>>>>>>>>> %$$$++X++++++++++++++++++++",
"@@@@@@@@@@@@=@@%%%$.>>>>>>>>>>>>>>>> :%%%@@+@@@@@@@@@@@@@@@@@@@@",
"@@@@@@@@@@@@-@@%%%$ >>>>>>>>>>>>>>>> :%%%@@+@@@@@@@@@@@@@@@@@@@@",
"@@@@+@@@@@@@=@@%%%$ >>>>>>>>>>>>>>>> :%%%@@@@@@@@@@@@@@@@@@@@@@@",
"@@@+-@@@@@@@-@@%%%$.>>>>>>>>>>>>>>>> :%%%@@@@===-=----=@@@@@@@@@",
"@@o=@@@@@@@@-@@%%%$.>>>>>>>>>>>>>>>> :%%%@@@@@@@@@@@@@@=@@@@@@@@",
"@o=@@@@@@@@@-@@%%%$.>>>>>>>>>>>>>>>> :%%%@@@@@@@@@@@@@@@=@@@@@@@",
"oO@@@@@@@@@@-@@%%%$ >>>>>>>>>>>>>>>> ;%%%%%%%%%%%%%%%&@@@=@@@@@@",
"OO@@@@@@@@@@-@@%%%$.>>>>>>>>>>>>>>>> :%%%%%%%%%%%%%%%%%@@@=@@@@@",
"OO@@@@@@@@@=-@@%%%% >>>>>>>>>>>>>>>> ;%%%%%%%%%%%%%%%%%&@@@=@@@@",
"=*-=-=------@@@%%%$.>>>>>>>>>>>>>>>> ;;;;;;;;%;%;%%%%%%%@@@@=---",
"O@@@@@@@@@@@@@@@;%%.>>>>>>>>>>>>>>>>>........ .    $%%%%@@@@@@@@",
"OO@@@@@@@@@@@@+;%%%$........ . .  >>>>>>>>>>>>>>>>> @%@%@@@@@@@@",
"XXo+o++++++@@@=%%%%%%%%%%%%%%%@@@+ >>>>>>>>>>>>>>>> @@%%@@@oooo+",
"OO@@@@@@@@@@+@@&%%%%%%%%%%%%%@%@@@ >>>>>>>>>>>>>>>> @@@%@@o@@@@@",
"@O@@@@@@@+@+@@@@%%%%%%%%%%%%%%@%@+ >>>>>>>>>>>>>>>> =@%@@@o@@@@@",
"O@@@@@@@+=+@+=@@@&%%%%%%%%%%%%%@@@ >>>>>>>>>>>>>>>> =@@%@@o@@@@@",
"@O@@@@@+-+@+-@=@@@@@@@@@@@@@@@%%@+ >>>>>>>>>>>>>>>> =@%@@@o@@@@@",
"@@@@@@+-@@+=@@@=@@@@@@@@@@@@@@%@@+ >>>>>>>>>>>>>>>> -@@%@@o@@@@@",
"@O@@@@=@@+@@@@@@+oooooo+++@@@@@%@+ >>>>>>>>>>>>>>>> -@%@@@o+@@@@",
"@@@@@@@@@@@@@@@@@@@@@@@@@@@@@@%@@+ >>>>>>>>>>>>>>>> -@@@@@o=@@@@",
"@@@@@@@@@@@@@@@@@@@@@@@@@@@=@@@@@+ >>>>>>>>>>>>>>>> =@@@@+@@@@@@",
"@@@@@@@@@@@@@@@@@@@@@@@@@@@=@@%@@+.>>>>>>>>>>>>>>>> -@@@+-o@@@@@",
"@@@@@@@@@@@@@@@@@@@@@@@@@@@=@@@@@+ >>>>>>>>>>>>>>>>.=@@@=+@@@@@+",
"@@@@@@@@@@@@@@@@@@@@@@@@@@@=@@@@@+.>>>>>>>>>>>>>>>> =@@@+-+@@@+=",
"@@@@@@@@@@@@@@@@@@@@@@@@@@@-@@@@@@ >>>>>>>>>>>>>>>>.=@@@=@+@@o=@",
"@@@@@@@@@@@+ooo@@@@@@@@@@@@-@@%@@+.>>>>>>>>>>>>>>>> =@@%@@+@oO@@",
"@@@@@@@@@@+oOO++@@@@@@@@@@=-@@@@@@ >>>>>>>>>>>>>>>>.=@@@@@+@OO@@",
"@@@@@@@@@+oOO@@+=----------@@@%@%@.>>>>>>>>>>>>>>>>.=@@%@@+@O@@@",
"@@@@@@@@-oOO@O@@=@@@@@@@@@@@@@@%@@ >>>>>>>>>>>>>>>>.=@@@@@+@@O@@",
"@@@@@@@-@o+OO@@-=@@@@@@@;+@@@@%@%@.>>>>>>>>>>>>>>>>.@@@%@@+@O@@@",
"@@@@@@-@@@&@@&:;%%%%%%%;#$%%%%@%@@ >>>>>>>>>>>>>>>>.@@%@@@+@@@@@",
"@@@@@-@@@%:::;%%%%%%%;: #%%%%%%@@@.>>>>>>>>>>>>>>>>.@%@%@@+@@@@@",
"@@@@-@@@&%%%%%%%%%%;:   $%%%%%@%@@ >>>>>>>>>>>>>>>>.;@%%@@@@@@@@",
"----@@@@%%%%%%%;;::  . . $$%;%%@@+.>>>>>>>>>>>>>>>>.;%%%@@@@===-",
"@@@@@@@@%%%%$  .. ... . .       ..>>>>>>>>>>>>>>>>>.%%%%@@@@@@@@",
"@@@@@@@@%%%% >>>>>>>>>>>>>>>>> . ... . .       . ..$%%%%@@@@@@@@",
"++++@@@@%%%% >>>>>>>>>>>>>>>> %%%%%%%%%%%%%%%%%%%%%%%%%%@@@@ooo+",
"@@@@@@@@%%%$ >>>>>>>>>>>>>>>> %%%%%%%%%%%%%%%%%%%%%%%%%&@@@o@@@@",
"@@@@@=@@%%%% >>>>>>>>>>>>>>>> ;%%%%%%%%%%%%%%%%%%%%%%%%@@@o@@@@@",
"@o+@@=@@%%%$ >>>>>>>>>>>>>>>> %%%%%%%%%%%%%%%%%%%%%%%&@@@o@@@@@@",
"oO@=@=@@%%%$ >>>>>>>>>>>>>>>> ;%%%@@@@@@@@@@@@@@@@@@@@@@o@@@@@@@",
"+@-=@-@@%%%$ >>>>>>>>>>>>>>>> :%%%@@@@@@@@@@@@@@@@@@@@@+@@@@@@@@",
"@=@@@-@@%%%$.>>>>>>>>>>>>>>>> :%%%@@@oooooooooo+o++++++@@@@@@@@@",
"@@@@@-@@%%%$ >>>>>>>>>>>>>>>> :%%%@@o+@@@@@@@@@@@@@@@@@@@@@@@@@@",
"@@@@@-@@%%%$.>>>>>>>>>>>>>>>> ;%%%@@o@@@@@@@@@@@@@@@@@@@@@@@@@@@",
"@@@@@-@@%%%$ >>>>>>>>>>>>>>>> :%%%@@o@@@@@@@@@@@@@@@@@@@@@@@@@@@",
"@@@@@=@@%%%#.>>>>>>>>>>>>>>>> %%%%@@o@@@@@@@@@@@@@@@@@@@@@@@@@@@",
"@@@@@-@@%%%$.>>>>>>>>>>>>>>>> ;%%%@@+@@@@@@@@@@@@@@@@@@@@@@@@@@@",
"@@@@@-@@%%%#.>>>>>>>>>>>>>>>> %%%%@@+@@@@@@@@@@@@@@@@@@@@@@@@@@@",
"@@@@@-@@%%%# >>>>>>>>>>>>>>>> %%%%@@+@@@@@@@@@@@@@@@@@@@@@@@@@@@",
"@@@@=-@@%%%#.>>>>>>>>>>>>>>>> %%%%@@@@@@@@@@@@@@@@@@@@@@@@@@@@@@",
"=----@@@%%%# >>>>>>>>>>>>>>>> %%%%@@@@======-----=-=------------",
"@@@@@@@@%%%#.>>>>>>>>>>>>>>>> %%%%@@@@@@@@@@@@@@@@@@@@@@@@@@@@@@",
"@@@@@@@@%%%#.>>>>>>>>>>>>>>>>.%%%%@@@@@@@@@@@@@@@@@@@@@@@@@@@@@@",
"XoXoooooXXX  >>>>>>>>>>>>>>>>  X    o ooooooooooXoXooXoXoXXXXXXo"
};
