/* XPM */
static char *result[] = {
/* columns rows colors chars-per-pixel */
"64 64 16 1 ",
"  c gray6",
". c #1E1918",
"X c #231512",
"o c #2A2024",
"O c #382E2B",
"+ c #2A2E31",
"@ c #34393C",
"# c #562F00",
"$ c #634200",
"% c #765410",
"& c #544627",
"* c #503C42",
"= c #3E484D",
"- c #495960",
"; c #866523",
": c #A0872C",
/* pixels */
"@@@@@@@@@@@@@@@@@+@@@@+%$$$  %%%%@@@@@@@@@@@@@@@@@@@@@@@@@@+@+@@",
"+++++++++++++++++++++++$$$$  %$$$+++++++++++++++++++++++++++++++",
"+++++++++++++++++++++++$$$#  %$$$+++++++++++++++++++++++++++++++",
"++++XXXXXXoXooooooo++++$$$$  %$$$+++XXXXXXXXXXXXoXooooXXXoo+++++",
"+++Xo++++++++++++++++++$$$#  %$$$++Xo+++++++++++++++++++++++++++",
"+++X++++++++++++++++@++$$$#  %$$$++X++++++++++++++++++++++++@+++",
"+++X++++++++++++++++@++$$$#  %$$$++X++++++++++++++++++++++++@+++",
"@@@o@@@@@@@@@@@@@@@@=@@%%%$. :%%%@@o@@@@@@@@@@@@@@@@@@@@@@@@=@@@",
"+++X++++++++++++++++@++$$$#  %$$$++X++++++++++++++++++++++++@+++",
"@@@o@@@@@@@@@@@@@@@@=@@%%%$. :%%%@@+@@@@@@@@@@@@@@@@@@@@@@@@=@@@",
"@@@o@@@@@@@@@@@@@@@@-@@%%%$  :%%%@@+@@@@@@@@@@@@@@@@@@@@@@@@-@@@",
"@@@o@@@@@@@@+@@@@@@@=@@%%%$  :%%%@@@@@@@@@@@@@@@@@@@@@@@@@@@=@@@",
"@@@o@@@@@@@+-@@@@@@@-@@%%%$. :%%%@@@@===-=----=@@@@@@@@@@@@@-@@@",
"@@@o@@@@@@o=@@@@@@@@-@@%%%$. :%%%@@@@@@@@@@@@@@=@@@@@@@@@@@@-@@@",
"@@@o@@@@@o=@@@@@@@@@-@@%%%$. :%%%@@@@@@@@@@@@@@@=@@@@@@@@@@@-@@@",
"@@@+@@@@oO@@@@@@@@@@-@@%%%$  ;%%%%%%%%%%%%%%%&@@@=@@@@@@@@@@-@@@",
"@@@+@@@@OO@@@@@@@@@@-@@%%%$. :%%%%%%%%%%%%%%%%%@@@=@@@@@@@@@-@@@",
"@@@@@@@@OO@@@@@@@@@=-@@%%%%  ;%%%%%%%%%%%%%%%%%&@@@=@@@@@@@=-@@@",
"@@@@@====*-=-=------@@@%%%$. ;;;;;;;;%;%;%%%%%%%@@@@=-------@@@@",
"@@@@@@@@O@@@@@@@@@@@@@@@;%%.......... .    $%%%%@@@@@@@@@@@@@@@@",
"@@@@@@@@OO@@@@@@@@@@@@+;%%%$........ . .    @%@%@@@@@@@@@@@@@@@@",
"@@@@ooooXXo+o++++++@@@=%%%%%%%%%%%%%%%@@@+  @@%%@@@oooo++++@@@@@",
"@@@o+@@@OO@@@@@@@@@@+@@&%%%%%%%%%%%%%@%@@@  @@@%@@o@@@@@@@@@@@@@",
"@@@o@@@@@O@@@@@@@+@+@@@@%%%%%%%%%%%%%%@%@+  =@%@@@o@@@@@@@@@=@@@",
"@@@o@@@@O@@@@@@@+=+@+=@@@&%%%%%%%%%%%%%@@@  =@@%@@o@@@@@@@@@=@@@",
"@@@o@@@@@O@@@@@+-+@+-@=@@@@@@@@@@@@@@@%%@+  =@%@@@o@@@@@@@@@=@@@",
"@@@+@@@@@@@@@@+-@@+=@@@=@@@@@@@@@@@@@@%@@+  -@@%@@o@@@@@@@@@-@@@",
"@@@o@@@@@O@@@@=@@+@@@@@@+oooooo+++@@@@@%@+  -@%@@@o+@@@@@@@@=@@@",
"@@@+@@@@@@@@@@@@@@@@@@@@@@@@@@@@@@@@@@%@@+  -@@@@@o=@@@@@@@@-@@@",
"@@@o@@@@@@@@@@@@@@@@@@@@@@@@@@@@@@@=@@@@@+  =@@@@+@@@@@@@@@@-@@@",
"@@@+@@@@@@@@@@@@@@@@@@@@@@@@@@@@@@@=@@%@@+. -@@@+-o@@@@@@@@@-@@@",
"@@@o@@@@@@@@@@@@@@@@@@@@@@@@@@@@@@@=@@@@@+ .=@@@=+@@@@@+-@@@-@@@",
"@@@o@@@@@@@@@@@@@@@@@@@@@@@@@@@@@@@=@@@@@+. =@@@+-+@@@+=@@@@=@@@",
"@@@o@@@@@@@@@@@@@@@@@@@@@@@@@@@@@@@-@@@@@@ .=@@@=@+@@o=@@@@@-@@@",
"@@@o@@@@@@@@@@@@@@@+ooo@@@@@@@@@@@@-@@%@@+. =@@%@@+@oO@@@@@@-@@@",
"@@@o@@@@@@@@@@@@@@+oOO++@@@@@@@@@@=-@@@@@@ .=@@@@@+@OO@@@@@@-@@@",
"@@@o@@@@@@@@@@@@@+oOO@@+=----------@@@%@%@..=@@%@@+@O@@@@@@@-@@@",
"@@@+@@@@@@@@@@@@-oOO@O@@=@@@@@@@@@@@@@@%@@ .=@@@@@+@@O@@@@@@-@@@",
"@@@o@@@@@@@@@@@-@o+OO@@-=@@@@@@@;+@@@@%@%@..@@@%@@+@O@@@@@@@-@@@",
"@@@+@@@@@@@@@@-@@@&@@&:;%%%%%%%;#$%%%%@%@@ .@@%@@@+@@@@@@@@@-@@@",
"@@@+@@@@@@@@@-@@@%:::;%%%%%%%;: #%%%%%%@@@..@%@%@@+@@@@@@@@@-@@@",
"@@@@@@@@@@@@-@@@&%%%%%%%%%%;:   $%%%%%@%@@ .;@%%@@@@@@@@@@@=-@@@",
"@@@@@==-----@@@@%%%%%%%;;::  . . $$%;%%@@+..;%%%@@@@===-----@@@@",
"@@@@@@@@@@@@@@@@%%%%$  .. ... . .       ....%%%%@@@@@@@@@@@@@@@@",
"@@@@@@@@@@@@@@@@%%%%   . ... . .       . ..$%%%%@@@@@@@@@@@@@@@@",
"@@@@oooo++++@@@@%%%%  %%%%%%%%%%%%%%%%%%%%%%%%%%@@@@ooo++++@@@@@",
"@@@o+@@@@@@@@@@@%%%$  %%%%%%%%%%%%%%%%%%%%%%%%%&@@@o@@@@@@@@@@@@",
"@@@o@@@@@@@@@=@@%%%%  ;%%%%%%%%%%%%%%%%%%%%%%%%@@@o@@@@@@@@@=@@@",
"@@@o@@@@@o+@@=@@%%%$  %%%%%%%%%%%%%%%%%%%%%%%&@@@o@@@@@@@@@@=@@@",
"@@@o@@@@oO@=@=@@%%%$  ;%%%@@@@@@@@@@@@@@@@@@@@@@o@@@@@@@@@@@=@@@",
"@@@+@@@@+@-=@-@@%%%$  :%%%@@@@@@@@@@@@@@@@@@@@@+@@@@@@@@@@@@-@@@",
"@@@o@@@@@=@@@-@@%%%$. :%%%@@@oooooooooo+o++++++@@@@@@@@@@@@@=@@@",
"@@@+@@@@@@@@@-@@%%%$  :%%%@@o+@@@@@@@@@@@@@@@@@@@@@@@@@@@@@@-@@@",
"@@@+@@@@@@@@@-@@%%%$. ;%%%@@o@@@@@@@@@@@@@@@@@@@@@@@@@@@@@@@-@@@",
"@@@+@@@@@@@@@-@@%%%$  :%%%@@o@@@@@@@@@@@@@@@@@@@@@@@@@@@@@@@-@@@",
"@@@o@@@@@@@@@=@@%%%#. %%%%@@o@@@@@@@@@@@@@@@@@@@@@@@@@@@@@@@-@@@",
"@@@+@@@@@@@@@-@@%%%$. ;%%%@@+@@@@@@@@@@@@@@@@@@@@@@@@@@@@@@@-@@@",
"@@@+@@@@@@@@@-@@%%%#. %%%%@@+@@@@@@@@@@@@@@@@@@@@@@@@@@@@@@@-@@@",
"@@@+@@@@@@@@@-@@%%%#  %%%%@@+@@@@@@@@@@@@@@@@@@@@@@@@@@@@@@@-@@@",
"@@@@@@@@@@@@=-@@%%%#. %%%%@@@@@@@@@@@@@@@@@@@@@@@@@@@@@@@@@=-@@@",
"@@@@@====----@@@%%%#  %%%%@@@@======-----=-=----------------@@@@",
"@@@@@@@@@@@@@@@@%%%#. %%%%@@@@@@@@@@@@@@@@@@@@@@@@@@@@@@@@@@@@@@",
"@@@@@@@@@@@@@@@@%%%#..%%%%@@@@@@@@@@@@@@@@@@@@@@@@@@@@@@@@@@@@@@",
"oXXXXXXoXoXoooooXXX    X    o ooooooooooXoXooXoXoXXXXXXoXoXooooo"
};
