/* XPM */
static char *_629f063f6ae46338c2f2d953ac0b5fbokQPZEkviitltM6K[] = {
/* columns rows colors chars-per-pixel */
"64 64 8 1 ",
"  c #1B1412",
". c #231512",
"X c #2A2024",
"o c #2A2E31",
"O c #34393C",
"+ c #3E484D",
"@ c #495960",
"# c #657278",
/* pixels */
"###@@@@@@+@@@@+@@@@@@@@@@+@@@@+@###@@@@@@+@@@@+@@@@@@@@@@+@@@@+@",
"@OOOOOOOOOOOOOOOOOOOOOOOOOOOOOOO@OOOOOOOOOOOOOOOOOOOOOOOOOOOOOOO",
"@OOOOOOOOOOOOOOOOOOOOOOOOOOOOOOo@OOOOOOOOOOOOOOOOOOOOOOOOOOOOOOo",
"+OX@oOOOOOOOOOOOOOOOOOOOOOX@oOOO+OX@oOOOOOOOOOOOOOOOOOOOOOX@oOOO",
"@OXooOOOOOOOOOOOOOOOOOOOOOXooOOo@OXooOOOOOOOOOOOOOOOOOOOOOXooOOo",
"+OXXOOOOOOOOOOOOOOOOOOOOOOXXOOOO+OXXOOOOOOOOOOOOOOOOOOOOOOXXOOOO",
"+OOOOOOOOOOOOOOOOOOOOOOOOOOOOOOo+OOOOOOOOOOOOOOOOOOOOOOOOOOOOOOo",
"+OOOOOO  XXXXXXXXXoXoXoooOOOOOOo+OOOOOO  XXXXXXXXXoXoXoooOOOOOOo",
"OOOOOOOXoOOOOOOOOOOOOOOOOOOOOOOoOOOOOOOXoOOOOOOOOOOOOOOOOOOOOOOo",
"+OOOOOOoOOOOOOOOOOOOOOOO+OOOOOOo+OOOOOOoOOOOOOOOOOOOOOOO+OOOOOOo",
"OOOOOOOXOOOOOOOOOOOOOOOOOOOOOOOoOOOOOOOXOOOOOOOOOOOOOOOOOOOOOOOo",
"+OOOOOOoOOOOOOOOOOOOOOOO+OOOOOOo+OOOOOOoOOOOOOOOOOOOOOOO+OOOOOOo",
"+OOOOOOXOOOOOOOOOOOOOOOO+OOOOOOX+OOOOOOXOOOOOOOOOOOOOOOO+OOOOOOX",
"+OOOOOOoOOOOOOOOOOOOOOOO+OOOOOOo+OOOOOOoOOOOOOOOOOOOOOOO+OOOOOOo",
"+OOOOOOoOOOOOOOOOOOOOOOO+OOOOOOX+OOOOOOoOOOOOOOOOOOOOOOO+OOOOOOX",
"+OOOOOOoOOOOOOOOOOOOOOOO+OOOOOOX+OOOOOOoOOOOOOOOOOOOOOOO+OOOOOOX",
"OOOOOOOoOOOOOOOOOOOOOOOO+OOOOOOXOOOOOOOoOOOOOOOOOOOOOOOO+OOOOOOX",
"+OOOOOOoOOOOOOOOOOOOOOOO+OOOOOOX+OOOOOOoOOOOOOOOOOOOOOOO+OOOOOOX",
"+OOOOOOoOOOOOOOOOOOOOOOO@OOOOOOX+OOOOOOoOOOOOOOOOOOOOOOO@OOOOOOX",
"+OOOOOOoOOOOOOOOOOOOOOOO+OOOOOOX+OOOOOOoOOOOOOOOOOOOOOOO+OOOOOOX",
"+OOOOOOoOOOOOOOOOOOOOOOO@OOOOOO.+OOOOOOoOOOOOOOOOOOOOOOO@OOOOOO.",
"+OOOOOOoOOOOOOOOOOOOOOOO+OOOOOOX+OOOOOOoOOOOOOOOOOOOOOOO+OOOOOOX",
"+OOOOOOoOOOOOOOOOOOOOOOO@OOOOOO.+OOOOOOoOOOOOOOOOOOOOOOO@OOOOOO.",
"+OOOOOOoOOOOOOOOOOOOOOOO@OOOOOO.+OOOOOOoOOOOOOOOOOOOOOOO@OOOOOO.",
"+OOOOOOoOOOOOOOOOOOOOOOO@OOOOOO.+OOOOOOoOOOOOOOOOOOOOOOO@OOOOOO.",
"+OOOOOOO++++@@@@@+@@@@###OOOOOO.+OOOOOOO++++@@@@@+@@@@###OOOOOO.",
"OOOOOOOOOOOOOOOOOOOOOOOOOOOOOOO.OOOOOOOOOOOOOOOOOOOOOOOOOOOOOOO.",
"+OX@oOOOOOOOOOOOOOOOOOOOOOX@oOO.+OX@oOOOOOOOOOOOOOOOOOOOOOX@oOO.",
"OOXooOOOOOOOOOOOOOOOOOOOOOXooOO.OOXooOOOOOOOOOOOOOOOOOOOOOXooOO.",
"+OXXOOOOOOOOOOOOOOOOOOOOOOXXOOO.+OXXOOOOOOOOOOOOOOOOOOOOOOXXOOO.",
"OOOOOOOOOOOOOOOOOOOOOOOOOOOOOOO.OOOOOOOOOOOOOOOOOOOOOOOOOOOOOOO.",
"X......X.X.XXXXXX...............X......X.X.XXXXXX...............",
"###@@@@@@+@@@@@@@@@@@@@@@+@@@@+@###@@@@@@+@@@@@@@@@@@@@@@+@@@@+@",
"@OOOOOOOOOOOOOOOOOOOOOOOOOOOOOOO@OOOOOOOOOOOOOOOOOOOOOOOOOOOOOOO",
"@O@oOOOOOOOOOOOOOOOOOOOOOOOO@oOo@O@oOOOOOOOOOOOOOOOOOOOOOOOO@oOo",
"+XooOOOOOOOOOOOOOOOOOOOOOOOXooOO+XooOOOOOOOOOOOOOOOOOOOOOOOXooOO",
"@XXO XXoXoXXXXXXXoXoXoooooX XOOo@XXO XXoXoXXXXXXXoXoXoooooX XOOo",
"+OOOXoOOOOOOOOOOOOOOOOOOOOOoOOOo+OOOXoOOOOOOOOOOOOOOOOOOOOOoOOOo",
"+OOOoOOOOOOOOOOOOOOOOOOOOOOOOOOX+OOOoOOOOOOOOOOOOOOOOOOOOOOOOOOX",
"+OOOXOOOOOOOOOOOOOOOOOOOOOO+OOOo+OOOXOOOOOOOOOOOOOOOOOOOOOO+OOOo",
"+OOOoOOOOOOOOOOOOOOOOOOOOOOOOOOX+OOOoOOOOOOOOOOOOOOOOOOOOOOOOOOX",
"+OOOXOOOOOOOOOOOOOOOOOOOOOO+OOOo+OOOXOOOOOOOOOOOOOOOOOOOOOO+OOOo",
"OOOOXOOOOOOOOOOOOOOOOOOOOOO+OOOo+OOOXOOOOOOOOOOOOOOOOOOOOOO+OOOo",
"+OOOXOOOOOOOOOOOOOOOOOOOOOO+OOOo+OOOXOOOOOOOOOOOOOOOOOOOOOO+OOOo",
"OOOOXOOOOOOOOOOOOOOOOOOOOOO+OOOoOOOOXOOOOOOOOOOOOOOOOOOOOOO+OOOo",
"+OOOXOOOOOOOOOOOOOOOOOOOOOO+OOOo+OOOXOOOOOOOOOOOOOOOOOOOOOO+OOOo",
"+OOOXOOOOOOOOOOOOOOOOOOOOOO+OOOXOOOOXOOOOOOOOOOOOOOOOOOOOOO+OOOX",
"+OOOXOOOOOOOOOOOOOOOOOOOOOO+OOOo+OOOXOOOOOOOOOOOOOOOOOOOOOO+OOOo",
"+OOOoOOOOOOOOOOOOOOOOOOOOOO+OOOX+OOOoOOOOOOOOOOOOOOOOOOOOOO+OOOX",
"+OOOXOOOOOOOOOOOOOOOOOOOOOO+OOOo+OOOXOOOOOOOOOOOOOOOOOOOOOO+OOOo",
"+OOOoOOOOOOOOOOOOOOOOOOOOOO@OOOX+OOOoOOOOOOOOOOOOOOOOOOOOOO@OOOX",
"+OOOXOOOOOOOOOOOOOOOOOOOOOO+OOOX+OOOXOOOOOOOOOOOOOOOOOOOOOO+OOOX",
"+OOOoOOOOOOOOOOOOOOOOOOOOOO@OOOX+OOOoOOOOOOOOOOOOOOOOOOOOOO@OOOX",
"+OOOXOOOOOOOOOOOOOOOOOOOOOO+OOOX+OOOXOOOOOOOOOOOOOOOOOOOOOO+OOOX",
"+OOOoOOOOOOOOOOOOOOOOOOOOOO@OOOX+OOOoOOOOOOOOOOOOOOOOOOOOOO@OOOX",
"+OOOoOOOOOOOOOOOOOOOOOOOOOO@OOOX+OOOoOOOOOOOOOOOOOOOOOOOOOO@OOOX",
"+OOOoOOOOOOOOOOOOOOOOOOOOOO@OOOX+OOOoOOOOOOOOOOOOOOOOOOOOOO@OOOX",
"+OOOoOOOOOOOOOOOOOOOOOOOOOO@OOOX+OOOoOOOOOOOOOOOOOOOOOOOOOO@OOOX",
"OOOOoOOOOOOOOOOOOOOOOOOOOOO@OOOXOOOOoOOOOOOOOOOOOOOOOOOOOOO@OOOX",
"+OOOO++@+@+@++++++@+@+@@@@##OOOX+OOOO++@+@+@++++++@+@+@@@@##OOOX",
"OO@oOOOOOOOOOOOOOOOOOOOOOOOO@oO.OO@oOOOOOOOOOOOOOOOOOOOOOOOO@oO.",
"+XooOOOOOOOOOOOOOOOOOOOOOOOXooOX+XooOOOOOOOOOOOOOOOOOOOOOOOXooOX",
"OXXOOOOOOOOOOOOOOOOOOOOOOOOXXOO.OXXOOOOOOOOOOOOOOOOOOOOOOOOXXOO.",
"X......X........X......X........X......X........X......X........"
};
